<svg width="23" height="22" viewBox="0 0 23 22" fill="none" xmlns="http://www.w3.org/2000/svg">
<path d="M18.6112 4.125H3.48624C3.3039 4.125 3.12903 4.19743 3.0001 4.32636C2.87117 4.4553 2.79874 4.63016 2.79874 4.8125C2.79874 4.99484 2.87117 5.1697 3.0001 5.29864C3.12903 5.42757 3.3039 5.5 3.48624 5.5H4.17374V17.875C4.17374 18.2397 4.3186 18.5894 4.57646 18.8473C4.83433 19.1051 5.18406 19.25 5.54874 19.25H16.5487C16.9134 19.25 17.2631 19.1051 17.521 18.8473C17.7789 18.5894 17.9237 18.2397 17.9237 17.875V5.5H18.6112C18.7936 5.5 18.9684 5.42757 19.0974 5.29864C19.2263 5.1697 19.2987 4.99484 19.2987 4.8125C19.2987 4.63016 19.2263 4.4553 19.0974 4.32636C18.9684 4.19743 18.7936 4.125 18.6112 4.125ZM16.5487 17.875H5.54874V5.5H16.5487V17.875ZM6.92374 2.0625C6.92374 1.88016 6.99617 1.7053 7.1251 1.57636C7.25403 1.44743 7.4289 1.375 7.61124 1.375H14.4862C14.6686 1.375 14.8434 1.44743 14.9724 1.57636C15.1013 1.7053 15.1737 1.88016 15.1737 2.0625C15.1737 2.24484 15.1013 2.4197 14.9724 2.54864C14.8434 2.67757 14.6686 2.75 14.4862 2.75H7.61124C7.4289 2.75 7.25403 2.67757 7.1251 2.54864C6.99617 2.4197 6.92374 2.24484 6.92374 2.0625Z" fill="#3E1671"/>
</svg>
